<svg width="839" height="369" viewBox="0 0 839 369" fill="none" xmlns="http://www.w3.org/2000/svg">
<path d="M321.715 0H471.715L385.679 122.873H235.679L321.715 0Z" fill="url(#paint0_linear_12_108)" fillOpacity="0.2"/>
<path d="M388.036 123H538.036L452 245.873H302L388.036 123Z" fill="url(#paint1_linear_12_108)" fillOpacity="0.2"/>
<path d="M688.073 123.333H838.073L752.036 246.206H602.036L688.073 123.333Z" fill="url(#paint2_linear_12_108)" fillOpacity="0.2"/>
<path d="M624.036 0H774.036L688 122.873H538L624.036 0Z" fill="url(#paint3_linear_12_108)" fillOpacity="0.2"/>
<path d="M452.036 246H602.036L516 368.873H366L452.036 246Z" fill="url(#paint4_linear_12_108)" fillOpacity="0.2"/>
<path d="M152.036 246H302.036L216 368.873H66L152.036 246Z" fill="url(#paint5_linear_12_108)" fillOpacity="0.2"/>
<path d="M86.0365 123H236.036L150 245.873H0L86.0365 123Z" fill="url(#paint6_linear_12_108)" fillOpacity="0.2"/>
<defs>
<linearGradient id="paint0_linear_12_108" x1="238.411" y1="115.956" x2="85.3115" y2="51.573" gradientUnits="userSpaceOnUse">
<stop stopColor="#D9D9D9"/>
<stop offset="1" stopColor="#737373"/>
</linearGradient>
<linearGradient id="paint1_linear_12_108" x1="238.411" y1="115.956" x2="85.3115" y2="51.573" gradientUnits="userSpaceOnUse">
<stop stopColor="#D9D9D9"/>
<stop offset="1" stopColor="#737373"/>
</linearGradient>
<linearGradient id="paint2_linear_12_108" x1="238.411" y1="115.956" x2="85.3115" y2="51.573" gradientUnits="userSpaceOnUse">
<stop stopColor="#D9D9D9"/>
<stop offset="1" stopColor="#737373"/>
</linearGradient>
<linearGradient id="paint3_linear_12_108" x1="238.411" y1="115.956" x2="85.3115" y2="51.573" gradientUnits="userSpaceOnUse">
<stop stopColor="#D9D9D9"/>
<stop offset="1" stopColor="#737373"/>
</linearGradient>
<linearGradient id="paint4_linear_12_108" x1="238.411" y1="115.956" x2="85.3115" y2="51.573" gradientUnits="userSpaceOnUse">
<stop stopColor="#D9D9D9"/>
<stop offset="1" stopColor="#737373"/>
</linearGradient>
<linearGradient id="paint5_linear_12_108" x1="238.411" y1="115.956" x2="85.3115" y2="51.573" gradientUnits="userSpaceOnUse">
<stop stopColor="#D9D9D9"/>
<stop offset="1" stopColor="#737373"/>
</linearGradient>
<linearGradient id="paint6_linear_12_108" x1="238.411" y1="115.956" x2="85.3115" y2="51.573" gradientUnits="userSpaceOnUse">
<stop stopColor="#D9D9D9"/>
<stop offset="1" stopColor="#737373"/>
</linearGradient>
</defs>
</svg>
